<svg width="101" height="100" viewBox="0 0 101 100" fill="none" xmlns="http://www.w3.org/2000/svg">
<path opacity="0.4" d="M67.9575 8.33337H33.0823C17.9156 8.33337 8.87402 17.375 8.87402 32.5417V67.4167C8.87402 82.5834 17.9156 91.625 33.0823 91.625H67.9575C83.1241 91.625 92.1658 82.5834 92.1658 67.4167V32.5417C92.1658 17.375 83.1241 8.33337 67.9575 8.33337Z" fill="#E5BB57"/>
<path d="M81.1229 34.4591C80.9563 34.0841 80.7479 33.7508 80.4563 33.4591L72.9567 25.9591C71.7483 24.7508 69.7483 24.7508 68.54 25.9591C67.3317 27.1674 67.3317 29.1674 68.54 30.3757L70.7063 32.5424H70.0817C61.9567 32.5424 54.9146 37.0008 51.0396 43.5424C47.2063 37.0008 40.1648 32.5424 32.0398 32.5424H30.2482L32.4147 30.3757C33.623 29.1674 33.623 27.1674 32.4147 25.9591C31.2063 24.7508 29.2063 24.7508 27.998 25.9591L20.498 33.4591C19.2897 34.6674 19.2897 36.6674 20.498 37.8758L27.998 45.3758C28.623 46.0008 29.4148 46.2924 30.2065 46.2924C30.9981 46.2924 31.7897 46.0008 32.4147 45.3758C33.623 44.1674 33.623 42.1674 32.4147 40.9591L30.2482 38.7924H31.9981C40.7481 38.7924 47.8729 45.9174 47.8729 54.6674V62.8341V71.8758C47.8729 73.5841 49.2896 75.0008 50.9979 75.0008C52.7063 75.0008 54.1229 73.5841 54.1229 71.8758V62.8341V54.6674C54.1229 45.9174 61.2479 38.7924 70.0396 38.7924H70.665L68.4983 40.9591C67.29 42.1674 67.29 44.1674 68.4983 45.3758C69.1233 46.0008 69.9146 46.2924 70.7063 46.2924C71.4979 46.2924 72.2896 46.0008 72.9146 45.3758L80.4146 37.8758C80.7063 37.5841 80.915 37.2508 81.0817 36.8758C81.4567 36.0841 81.4563 35.2091 81.1229 34.4591Z" fill="#E5BB57"/>
</svg>
