<svg width="100" height="100" viewBox="0 0 100 100" fill="none" xmlns="http://www.w3.org/2000/svg">
<path d="M69.7928 14.8334V8.33337C69.7928 6.62504 68.3762 5.20837 66.6678 5.20837C64.9595 5.20837 63.5428 6.62504 63.5428 8.33337V14.5834H36.4597V8.33337C36.4597 6.62504 35.043 5.20837 33.3347 5.20837C31.6263 5.20837 30.2097 6.62504 30.2097 8.33337V14.8334C18.9597 15.875 13.5013 22.5834 12.6679 32.5417C12.5846 33.75 13.5846 34.75 14.7513 34.75H85.2512C86.4595 34.75 87.4595 33.7084 87.3345 32.5417C86.5012 22.5834 81.0428 15.875 69.7928 14.8334Z" fill="white"/>
<path opacity="0.4" d="M87.5 45.167V52.417C87.5 54.9587 85.25 56.917 82.75 56.5004C81.5833 56.3337 80.375 56.2087 79.1667 56.2087C66.5417 56.2087 56.25 66.5004 56.25 79.1254C56.25 81.042 57 83.7087 57.7917 86.1254C58.7083 88.8337 56.7083 91.6254 53.8333 91.6254H33.3333C18.75 91.6254 12.5 83.292 12.5 70.792V45.1254C12.5 42.8337 14.375 40.9586 16.6667 40.9586H83.3333C85.625 41.0003 87.5 42.8754 87.5 45.167Z" fill="white"/>
<path d="M35.4167 62.4996C34.3333 62.4996 33.25 62.0413 32.4583 61.2913C31.7083 60.4996 31.25 59.4163 31.25 58.3329C31.25 57.2496 31.7083 56.1663 32.4583 55.3746C33.4167 54.4163 34.875 53.9579 36.25 54.2496C36.5 54.2913 36.75 54.3746 37 54.4996C37.25 54.5829 37.5 54.7079 37.75 54.8746C37.9583 55.0413 38.1667 55.2079 38.375 55.3746C39.125 56.1663 39.5833 57.2496 39.5833 58.3329C39.5833 59.4163 39.125 60.4996 38.375 61.2913C38.1667 61.4579 37.9583 61.6246 37.75 61.7913C37.5 61.9579 37.25 62.0829 37 62.1663C36.75 62.2913 36.5 62.3746 36.25 62.4163C35.9583 62.4579 35.6667 62.4996 35.4167 62.4996Z" fill="white"/>
<path d="M49.9997 62.4996C48.9163 62.4996 47.833 62.0412 47.0413 61.2912C46.2913 60.4996 45.833 59.4162 45.833 58.3329C45.833 57.2496 46.2913 56.1667 47.0413 55.375C48.6247 53.8333 51.4163 53.8333 52.958 55.375C53.708 56.1667 54.1663 57.2496 54.1663 58.3329C54.1663 59.4162 53.708 60.4996 52.958 61.2912C52.1663 62.0412 51.083 62.4996 49.9997 62.4996Z" fill="white"/>
<path d="M35.4167 77.0829C34.3333 77.0829 33.25 76.6245 32.4583 75.8745C31.7083 75.0829 31.25 73.9995 31.25 72.9162C31.25 71.8329 31.7083 70.7495 32.4583 69.9579C32.875 69.5829 33.2917 69.2912 33.8333 69.0829C35.375 68.4162 37.2083 68.7912 38.375 69.9579C39.125 70.7495 39.5833 71.8329 39.5833 72.9162C39.5833 73.9995 39.125 75.0829 38.375 75.8745C37.5833 76.6245 36.5 77.0829 35.4167 77.0829Z" fill="white"/>
<path d="M90.9583 67.375C84.4583 60.875 73.875 60.875 67.375 67.375C60.875 73.875 60.875 84.4583 67.375 90.9583C73.875 97.4583 84.4583 97.4583 90.9583 90.9583C97.4583 84.4583 97.4583 73.875 90.9583 67.375ZM87.7917 81.5C87.25 82.0833 86.4583 82.4167 85.5833 82.4167H82.5V85.6667C82.5 86.5417 82.1667 87.2917 81.5833 87.875C81 88.4583 80.25 88.7917 79.375 88.7917C77.6667 88.7917 76.25 87.375 76.25 85.6667V82.4167H73.125C71.4167 82.4167 70 81.0417 70 79.2917C70 77.5833 71.4167 76.1667 73.125 76.1667H76.25V73.2083C76.25 71.5 77.625 70.0833 79.375 70.0833C81.0833 70.0833 82.5 71.5 82.5 73.2083V76.1667H85.5833C87.3333 76.1667 88.7083 77.5833 88.7083 79.2917C88.7083 80.1667 88.375 80.9583 87.7917 81.5Z" fill="white"/>
</svg>
