<svg width="101" height="100" viewBox="0 0 101 100" fill="none" xmlns="http://www.w3.org/2000/svg">
<path d="M87.8753 66.6666H75.6253C70.3337 66.6666 67.167 69.8333 67.167 75.125V87.375C67.167 92.6666 70.3337 95.8333 75.6253 95.8333H87.8753C93.167 95.8333 96.3337 92.6666 96.3337 87.375V75.125C96.3337 69.8333 93.167 66.6666 87.8753 66.6666ZM90.6253 76.875L80.7503 88.4166C80.3753 88.875 79.792 89.1666 79.2087 89.1666C79.167 89.1666 79.167 89.1666 79.1253 89.1666C78.542 89.1666 78.0003 88.9583 77.5837 88.5416L73.042 84.0416C72.2087 83.2083 72.2087 81.8333 73.042 81C73.8753 80.1666 75.2503 80.125 76.0837 81L79.0003 83.875L87.3337 74.125C88.1253 73.2083 89.4587 73.125 90.3753 73.875C91.292 74.625 91.3753 76 90.6253 76.875Z" fill="#E5BB57"/>
<path opacity="0.4" d="M67.1663 87.375V75.125C67.1663 69.8334 70.333 66.6667 75.6247 66.6667H87.8747C89.5413 66.6667 90.958 67 92.1663 67.5834C92.1663 67.5417 92.1663 67.5 92.1663 67.4167V32.5417C92.1663 17.375 83.1247 8.33337 67.958 8.33337H33.0413C17.8747 8.33337 8.83301 17.375 8.83301 32.5417V67.4167C8.83301 82.625 17.8747 91.6667 33.0413 91.6667H67.9163C67.958 91.6667 67.9997 91.6667 68.083 91.6667C67.4997 90.4584 67.1663 89.0417 67.1663 87.375Z" fill="#E5BB57"/>
<path d="M29.667 59.375C27.9587 59.375 26.542 57.9583 26.542 56.25V43.75C26.542 42.0417 27.9587 40.625 29.667 40.625C31.3753 40.625 32.792 42.0417 32.792 43.75V56.25C32.792 57.9583 31.3753 59.375 29.667 59.375Z" fill="#E5BB57"/>
<path d="M50.5 59.375C48.7917 59.375 47.375 57.9583 47.375 56.25V43.75C47.375 42.0417 48.7917 40.625 50.5 40.625C52.2083 40.625 53.625 42.0417 53.625 43.75V56.25C53.625 57.9583 52.2083 59.375 50.5 59.375Z" fill="#E5BB57"/>
<path d="M71.333 59.375C69.6247 59.375 68.208 57.9583 68.208 56.25V43.75C68.208 42.0417 69.6247 40.625 71.333 40.625C73.0413 40.625 74.458 42.0417 74.458 43.75V56.25C74.458 57.9583 73.0413 59.375 71.333 59.375Z" fill="#E5BB57"/>
</svg>
