<svg width="380" height="244" viewBox="0 0 380 244" fill="none" xmlns="http://www.w3.org/2000/svg">
<g opacity="0.3">
<g opacity="0.6">
<mask id="path-1-inside-1_1998_6265" fill="white">
<path d="M30 190H110V270H30V190Z"/>
</mask>
<path d="M30 189.5C30 189.833 30 190.167 30 190.5C35.3333 192.167 40.6667 193.667 46 195C67.3333 200.333 88.6667 203 110 203L97 190C97 216.667 97.463 243.333 98.3889 270L110 258.389C83.3333 259.315 56.6667 260.704 30 262.556L37.4444 270C35.963 248.667 34.1852 227.333 32.1111 206C31.5926 200.667 31.0556 195.333 30.5 190C30.1667 190 29.8333 190 29.5 190C28.9444 195.333 28.4074 200.667 27.8889 206C25.8148 227.333 24.037 248.667 22.5556 270L23.1058 277.923L30 277.444C56.6667 279.296 83.3333 280.685 110 281.611L122 281.194L121.611 270C122.537 243.333 123 216.667 123 190V177H110C88.6667 177 67.3333 179.667 46 185C40.6667 186.333 35.3333 187.833 30 189.5ZM30 190.5V189.5L29.4653 189.667L29.5 190H30.5L30 190.5Z" fill="#E5BB57" mask="url(#path-1-inside-1_1998_6265)"/>
</g>
<g opacity="0.6">
<mask id="path-3-inside-2_1998_6265" fill="white">
<path d="M130 180H210V260H130V180Z"/>
</mask>
<path d="M130 179.5C130 179.833 130 180.167 130 180.5C135.333 182.167 140.667 183.667 146 185C167.333 190.333 188.667 193 210 193L197 180C197 206.667 197.463 233.333 198.389 260L210 248.389C183.333 249.315 156.667 250.704 130 252.556L137.444 260C135.963 238.667 134.185 217.333 132.111 196C131.593 190.667 131.056 185.333 130.5 180C130.167 180 129.833 180 129.5 180C128.944 185.333 128.407 190.667 127.889 196C125.815 217.333 124.037 238.667 122.556 260L123.106 267.923L130 267.444C156.667 269.296 183.333 270.685 210 271.611L222 271.194L221.611 260C222.537 233.333 223 206.667 223 180V167H210C188.667 167 167.333 169.667 146 175C140.667 176.333 135.333 177.833 130 179.5ZM130 180.5V179.5L129.465 179.667L129.5 180H130.5L130 180.5Z" fill="#E5BB57" mask="url(#path-3-inside-2_1998_6265)"/>
</g>
<mask id="path-5-inside-3_1998_6265" fill="white">
<path d="M140 0H220V80H140V0Z"/>
</mask>
<path d="M140 -0.5C140 -0.166667 140 0.166667 140 0.5C145.333 2.16667 150.667 3.66667 156 5C177.333 10.3333 198.667 13 220 13L207 0C207 26.6667 207.463 53.3333 208.389 80L220 68.3889C193.333 69.3148 166.667 70.7037 140 72.5556L147.444 80C145.963 58.6667 144.185 37.3333 142.111 16C141.593 10.6667 141.056 5.33334 140.5 0C140.167 0 139.833 0 139.5 0C138.944 5.33334 138.407 10.6667 137.889 16C135.815 37.3333 134.037 58.6667 132.556 80L133.106 87.9232L140 87.4444C166.667 89.2963 193.333 90.6852 220 91.6111L232 91.1945L231.611 80C232.537 53.3333 233 26.6667 233 0V-13H220C198.667 -13 177.333 -10.3333 156 -5C150.667 -3.66667 145.333 -2.16667 140 -0.5ZM140 0.5V-0.5L139.465 -0.332913L139.5 0H140.5L140 0.5Z" fill="#E5BB57" mask="url(#path-5-inside-3_1998_6265)"/>
<g opacity="0.8">
<mask id="path-7-inside-4_1998_6265" fill="white">
<path d="M200 90H280V170H200V90Z"/>
</mask>
<path d="M200 89.5C200 89.8333 200 90.1667 200 90.5C205.333 92.1667 210.667 93.6667 216 95C237.333 100.333 258.667 103 280 103L267 90C267 116.667 267.463 143.333 268.389 170L280 158.389C253.333 159.315 226.667 160.704 200 162.556L207.444 170C205.963 148.667 204.185 127.333 202.111 106C201.593 100.667 201.056 95.3333 200.5 90C200.167 90 199.833 90 199.5 90C198.944 95.3333 198.407 100.667 197.889 106C195.815 127.333 194.037 148.667 192.556 170L193.106 177.923L200 177.444C226.667 179.296 253.333 180.685 280 181.611L292 181.194L291.611 170C292.537 143.333 293 116.667 293 90V77H280C258.667 77 237.333 79.6667 216 85C210.667 86.3333 205.333 87.8333 200 89.5ZM200 90.5V89.5L199.465 89.6671L199.5 90H200.5L200 90.5Z" fill="#E5BB57" mask="url(#path-7-inside-4_1998_6265)"/>
</g>
<g opacity="0.6">
<mask id="path-9-inside-5_1998_6265" fill="white">
<path d="M240 180H320V260H240V180Z"/>
</mask>
<path d="M240 179.5C240 179.833 240 180.167 240 180.5C245.333 182.167 250.667 183.667 256 185C277.333 190.333 298.667 193 320 193L307 180C307 206.667 307.463 233.333 308.389 260L320 248.389C293.333 249.315 266.667 250.704 240 252.556L247.444 260C245.963 238.667 244.185 217.333 242.111 196C241.593 190.667 241.056 185.333 240.5 180C240.167 180 239.833 180 239.5 180C238.944 185.333 238.407 190.667 237.889 196C235.815 217.333 234.037 238.667 232.556 260L233.106 267.923L240 267.444C266.667 269.296 293.333 270.685 320 271.611L332 271.194L331.611 260C332.537 233.333 333 206.667 333 180V167H320C298.667 167 277.333 169.667 256 175C250.667 176.333 245.333 177.833 240 179.5ZM240 180.5V179.5L239.465 179.667L239.5 180H240.5L240 180.5Z" fill="#E5BB57" mask="url(#path-9-inside-5_1998_6265)"/>
</g>
<g opacity="0.8">
<mask id="path-11-inside-6_1998_6265" fill="white">
<path d="M90 90H170V170H90V90Z"/>
</mask>
<path d="M90 89.5C90 89.8333 90 90.1667 90 90.5C95.3333 92.1667 100.667 93.6667 106 95C127.333 100.333 148.667 103 170 103L157 90C157 116.667 157.463 143.333 158.389 170L170 158.389C143.333 159.315 116.667 160.704 90 162.556L97.4444 170C95.963 148.667 94.1852 127.333 92.1111 106C91.5926 100.667 91.0556 95.3333 90.5 90C90.1667 90 89.8333 90 89.5 90C88.9444 95.3333 88.4074 100.667 87.8889 106C85.8148 127.333 84.037 148.667 82.5556 170L83.1058 177.923L90 177.444C116.667 179.296 143.333 180.685 170 181.611L182 181.194L181.611 170C182.537 143.333 183 116.667 183 90V77H170C148.667 77 127.333 79.6667 106 85C100.667 86.3333 95.3333 87.8333 90 89.5ZM90 90.5V89.5L89.4653 89.6671L89.5 90H90.5L90 90.5Z" fill="#E5BB57" mask="url(#path-11-inside-6_1998_6265)"/>
</g>
</g>
</svg>
