<svg width="380" height="360" viewBox="0 0 380 360" fill="none" xmlns="http://www.w3.org/2000/svg">
<g opacity="0.3">
<mask id="path-1-inside-1_1990_6061" fill="white">
<path d="M0 270H80L80 350H0L0 270Z"/>
</mask>
<path d="M0 269.5C0 269.833 0 270.166 0 270.5C5.33333 272.166 10.6667 273.666 16 275C37.3333 280.333 58.6667 283 80 283L67 270C67 296.666 67.463 323.333 68.3889 350L80 338.389C53.3333 339.315 26.6667 340.703 0 342.555L7.44444 350C5.96296 328.666 4.18519 307.333 2.11111 286C1.59259 280.666 1.05556 275.333 0.5 270C0.166667 270 -0.166667 270 -0.5 270C-1.05556 275.333 -1.59259 280.666 -2.11111 286C-4.18519 307.333 -5.96296 328.666 -7.44444 350L-6.89422 357.923L0 357.444C26.6667 359.296 53.3333 360.685 80 361.611L91.9998 361.194L91.6111 350C92.537 323.333 93 296.666 93 270V257H80C58.6667 257 37.3333 259.666 16 265C10.6667 266.333 5.33333 267.833 0 269.5ZM0 270.5L0 269.5L-0.534678 269.667L-0.5 270H0.5L0 270.5Z" fill="white" mask="url(#path-1-inside-1_1990_6061)"/>
<g opacity="0.6">
<mask id="path-3-inside-2_1990_6061" fill="white">
<path d="M30 190L110 190L110 270H30L30 190Z"/>
</mask>
<path d="M30 189.5C30 189.833 30 190.166 30 190.5C35.3333 192.166 40.6667 193.666 46 195C67.3333 200.333 88.6667 203 110 203L97 190C97 216.666 97.463 243.333 98.3889 270L110 258.389C83.3333 259.315 56.6667 260.703 30 262.555L37.4444 270C35.963 248.666 34.1852 227.333 32.1111 206C31.5926 200.666 31.0556 195.333 30.5 190C30.1667 190 29.8333 190 29.5 190C28.9444 195.333 28.4074 200.666 27.8889 206C25.8148 227.333 24.037 248.666 22.5556 270L23.1058 277.923L30 277.444C56.6667 279.296 83.3333 280.685 110 281.611L122 281.194L121.611 270C122.537 243.333 123 216.666 123 190V177H110C88.6667 177 67.3333 179.666 46 185C40.6667 186.333 35.3333 187.833 30 189.5ZM30 190.5V189.5L29.4653 189.667L29.5 190H30.5L30 190.5Z" fill="white" mask="url(#path-3-inside-2_1990_6061)"/>
</g>
<mask id="path-5-inside-3_1990_6061" fill="white">
<path d="M100 280H180V360H100L100 280Z"/>
</mask>
<path d="M100 279.5C100 279.833 100 280.166 100 280.5C105.333 282.166 110.667 283.666 116 285C137.333 290.333 158.667 293 180 293L167 280C167 306.666 167.463 333.333 168.389 360L180 348.389C153.333 349.315 126.667 350.703 100 352.555L107.444 360C105.963 338.666 104.185 317.333 102.111 296C101.593 290.666 101.056 285.333 100.5 280C100.167 280 99.8333 280 99.5 280C98.9444 285.333 98.4074 290.666 97.8889 296C95.8148 317.333 94.037 338.666 92.5556 360L93.1058 367.923L100 367.444C126.667 369.296 153.333 370.685 180 371.611L192 371.194L191.611 360C192.537 333.333 193 306.666 193 280V267H180C158.667 267 137.333 269.666 116 275C110.667 276.333 105.333 277.833 100 279.5ZM100 280.5V279.5L99.4653 279.667L99.5 280H100.5L100 280.5Z" fill="white" mask="url(#path-5-inside-3_1990_6061)"/>
<g opacity="0.6">
<mask id="path-7-inside-4_1990_6061" fill="white">
<path d="M130 180L210 180V260H130L130 180Z"/>
</mask>
<path d="M130 179.5C130 179.833 130 180.166 130 180.5C135.334 182.166 140.667 183.666 146 185C167.334 190.333 188.667 193 210 193L197 180C197 206.666 197.463 233.333 198.389 260L210 248.389C183.334 249.315 156.667 250.703 130 252.555L137.445 260C135.963 238.666 134.186 217.333 132.112 196C131.593 190.666 131.056 185.333 130.5 180C130.167 180 129.834 180 129.5 180C128.945 185.333 128.408 190.666 127.889 196C125.815 217.333 124.038 238.666 122.556 260L123.106 267.923L130 267.444C156.667 269.296 183.334 270.685 210 271.611L222 271.194L221.612 260C222.538 233.333 223 206.666 223 180V167H210C188.667 167 167.334 169.666 146 175C140.667 176.333 135.334 177.833 130 179.5ZM130 180.5V179.5L129.466 179.667L129.5 180H130.5L130 180.5Z" fill="white" mask="url(#path-7-inside-4_1990_6061)"/>
</g>
<mask id="path-9-inside-5_1990_6061" fill="white">
<path d="M140 0L220 0V80L140 80L140 0Z"/>
</mask>
<path d="M140 -0.5C140 -0.166667 140 0.166667 140 0.5C145.334 2.16667 150.667 3.66667 156 5C177.334 10.3333 198.667 13 220 13L207 0C207 26.6667 207.463 53.3333 208.389 80L220 68.3889C193.334 69.3148 166.667 70.7037 140 72.5556L147.445 80C145.963 58.6667 144.186 37.3333 142.112 16C141.593 10.6667 141.056 5.33334 140.5 0C140.167 0 139.834 0 139.5 0C138.945 5.33334 138.408 10.6667 137.889 16C135.815 37.3333 134.038 58.6667 132.556 80L133.106 87.9232L140 87.4444C166.667 89.2963 193.334 90.6852 220 91.6111L232 91.1945L231.612 80C232.538 53.3333 233 26.6667 233 0V-13L220 -13C198.667 -13 177.334 -10.3333 156 -5C150.667 -3.66667 145.334 -2.16667 140 -0.5ZM140 0.5V-0.5L139.466 -0.332913L139.5 0L140.5 0L140 0.5Z" fill="white" mask="url(#path-9-inside-5_1990_6061)"/>
<g opacity="0.8">
<mask id="path-11-inside-6_1990_6061" fill="white">
<path d="M200 90L280 90V170H200L200 90Z"/>
</mask>
<path d="M200 89.5C200 89.8333 200 90.1667 200 90.5C205.334 92.1667 210.667 93.6667 216 95C237.334 100.333 258.667 103 280 103L267 90C267 116.667 267.463 143.333 268.389 170L280 158.389C253.334 159.315 226.667 160.704 200 162.556L207.445 170C205.963 148.667 204.186 127.333 202.112 106C201.593 100.667 201.056 95.3333 200.5 90C200.167 90 199.834 90 199.5 90C198.945 95.3333 198.408 100.667 197.889 106C195.815 127.333 194.038 148.667 192.556 170L193.106 177.923L200 177.444C226.667 179.296 253.334 180.685 280 181.611L292 181.194L291.612 170C292.538 143.333 293 116.667 293 90V77H280C258.667 77 237.334 79.6667 216 85C210.667 86.3333 205.334 87.8333 200 89.5ZM200 90.5V89.5L199.466 89.6671L199.5 90H200.5L200 90.5Z" fill="white" mask="url(#path-11-inside-6_1990_6061)"/>
</g>
<g opacity="0.6">
<mask id="path-13-inside-7_1990_6061" fill="white">
<path d="M240 180L320 180V260H240L240 180Z"/>
</mask>
<path d="M240 179.5C240 179.833 240 180.166 240 180.5C245.334 182.166 250.667 183.666 256 185C277.334 190.333 298.667 193 320 193L307 180C307 206.666 307.463 233.333 308.389 260L320 248.389C293.334 249.315 266.667 250.703 240 252.555L247.445 260C245.963 238.666 244.186 217.333 242.112 196C241.593 190.666 241.056 185.333 240.5 180C240.167 180 239.834 180 239.5 180C238.945 185.333 238.408 190.666 237.889 196C235.815 217.333 234.038 238.666 232.556 260L233.106 267.923L240 267.444C266.667 269.296 293.334 270.685 320 271.611L332 271.194L331.612 260C332.538 233.333 333 206.666 333 180V167H320C298.667 167 277.334 169.666 256 175C250.667 176.333 245.334 177.833 240 179.5ZM240 180.5V179.5L239.466 179.667L239.5 180H240.5L240 180.5Z" fill="white" mask="url(#path-13-inside-7_1990_6061)"/>
</g>
<g opacity="0.4">
<mask id="path-15-inside-8_1990_6061" fill="white">
<path d="M300 270H380V350H300V270Z"/>
</mask>
<path d="M300 269.5C300 269.833 300 270.167 300 270.5C305.334 272.167 310.667 273.667 316 275C337.334 280.333 358.667 283 380 283L367 270C367 296.667 367.463 323.333 368.389 350L380 338.389C353.334 339.315 326.667 340.704 300 342.556L307.445 350C305.963 328.667 304.186 307.333 302.112 286C301.593 280.667 301.056 275.333 300.5 270C300.167 270 299.834 270 299.5 270C298.945 275.333 298.408 280.667 297.889 286C295.815 307.333 294.038 328.667 292.556 350L293.106 357.923L300 357.444C326.667 359.296 353.334 360.685 380 361.611L392 361.194L391.612 350C392.538 323.333 393 296.667 393 270V257H380C358.667 257 337.334 259.667 316 265C310.667 266.333 305.334 267.833 300 269.5ZM300 270.5V269.5L299.466 269.667L299.5 270H300.5L300 270.5Z" fill="white" mask="url(#path-15-inside-8_1990_6061)"/>
</g>
<g opacity="0.8">
<mask id="path-17-inside-9_1990_6061" fill="white">
<path d="M90 89.9998L170 89.9998V170H90L90 89.9998Z"/>
</mask>
<path d="M90 89.4998C90 89.8331 90 90.1664 90 90.4998C95.3333 92.1664 100.667 93.6664 106 94.9998C127.333 100.333 148.667 103 170 103L157 89.9998C157 116.666 157.463 143.333 158.389 170L170 158.389C143.333 159.315 116.667 160.703 90 162.555L97.4444 170C95.963 148.666 94.1852 127.333 92.1111 106C91.5926 100.666 91.0556 95.3331 90.5 89.9998C90.1667 89.9998 89.8333 89.9998 89.5 89.9998C88.9444 95.3331 88.4074 100.666 87.8889 106C85.8148 127.333 84.037 148.666 82.5556 170L83.1058 177.923L90 177.444C116.667 179.296 143.333 180.685 170 181.611L182 181.194L181.611 170C182.537 143.333 183 116.666 183 89.9998V76.9998H170C148.667 76.9998 127.333 79.6664 106 84.9998C100.667 86.3331 95.3333 87.8331 90 89.4998ZM90 90.4998V89.4998L89.4653 89.6668L89.5 89.9998H90.5L90 90.4998Z" fill="white" mask="url(#path-17-inside-9_1990_6061)"/>
</g>
<g opacity="0.4">
<mask id="path-19-inside-10_1990_6061" fill="white">
<path d="M200 270H280V350H200L200 270Z"/>
</mask>
<path d="M200 269.5C200 269.833 200 270.167 200 270.5C205.334 272.167 210.667 273.667 216 275C237.334 280.333 258.667 283 280 283L267 270C267 296.667 267.463 323.333 268.389 350L280 338.389C253.334 339.315 226.667 340.704 200 342.556L207.445 350C205.963 328.667 204.186 307.333 202.112 286C201.593 280.667 201.056 275.333 200.5 270C200.167 270 199.834 270 199.5 270C198.945 275.333 198.408 280.667 197.889 286C195.815 307.333 194.038 328.667 192.556 350L193.106 357.923L200 357.444C226.667 359.296 253.334 360.685 280 361.611L292 361.194L291.612 350C292.538 323.333 293 296.667 293 270V257H280C258.667 257 237.334 259.667 216 265C210.667 266.333 205.334 267.833 200 269.5ZM200 270.5V269.5L199.466 269.667L199.5 270H200.5L200 270.5Z" fill="white" mask="url(#path-19-inside-10_1990_6061)"/>
</g>
</g>
</svg>
