<svg width="124" height="40" viewBox="0 0 124 40" fill="none" xmlns="http://www.w3.org/2000/svg">
<path d="M37.8106 19.1175H47.5475V20.408C47.5475 21.9435 47.3173 23.3786 46.8573 24.7125C46.3971 26.0467 45.7405 27.2176 44.888 28.2247C44.0353 29.2321 43.0253 30.019 41.8579 30.5855C40.6902 31.1516 39.4042 31.435 37.9996 31.435C36.5949 31.435 35.2383 31.1462 34.0466 30.569C32.8549 29.9921 31.8279 29.1914 30.9659 28.1675C30.1035 27.1439 29.4373 25.9541 28.9675 24.5981C28.4975 23.2423 28.2627 21.791 28.2627 20.2444C28.2627 18.6979 28.4975 17.263 28.9675 15.9073C29.4373 14.5512 30.1033 13.3644 30.9659 12.3459C31.8279 11.3277 32.8552 10.53 34.0466 9.95251C35.2383 9.37528 36.5558 9.08652 37.9996 9.08652C39.1134 9.08652 40.1069 9.22281 40.9788 9.4951C41.8507 9.76739 42.6136 10.1349 43.2676 10.5977C43.9215 11.0608 44.4883 11.5725 44.968 12.1332C45.4476 12.6943 45.8471 13.2577 46.1669 13.8239L42.7663 15.6862C42.3013 14.9241 41.6836 14.2705 40.9135 13.7259C40.1431 13.1814 39.1718 12.9091 37.9996 12.9091C37.1276 12.9091 36.3258 13.1026 35.5943 13.489C34.8628 13.8757 34.2332 14.4065 33.705 15.0817C33.1768 15.7572 32.7678 16.5384 32.4771 17.426C32.1863 18.3138 32.0411 19.2532 32.0411 20.2441C32.0411 21.235 32.1863 22.1882 32.4771 23.0704C32.7678 23.9525 33.1768 24.7341 33.705 25.4146C34.2329 26.0955 34.8626 26.6263 35.5943 27.0073C36.3258 27.3887 37.1276 27.5792 37.9996 27.5792C38.7939 27.5792 39.5158 27.4486 40.165 27.1871C40.8138 26.9259 41.3785 26.5556 41.8579 26.0763C42.3376 25.5974 42.7176 25.0336 42.9987 24.3854C43.2796 23.7375 43.4395 23.0377 43.4784 22.2862H37.8106V19.1169V19.1175Z" fill="#414042"/>
<path d="M52.8944 31.0432H49.2031V17.6312H52.8944V19.8038H52.8216C52.8893 19.5426 53.0759 19.2104 53.3812 18.8072C53.6864 18.4043 54.1101 18.0421 54.6529 17.7207C55.1954 17.3996 55.8494 17.2388 56.6147 17.2388C57.1668 17.2388 57.6684 17.3286 58.119 17.5083C58.5696 17.6881 58.8915 17.8651 59.0855 18.0392L57.6321 21.4372C57.5061 21.2632 57.271 21.0835 56.9273 20.898C56.5833 20.7129 56.1545 20.6204 55.6413 20.6204C55.031 20.6204 54.5223 20.8082 54.1154 21.1841C53.7085 21.5601 53.4034 22.0172 53.1998 22.5564C52.9964 23.0955 52.8947 23.5994 52.8947 24.0676V31.0432H52.8944Z" fill="#414042"/>
<path d="M68.8084 31.0432V28.707C68.7212 28.9466 68.4982 29.2845 68.1398 29.7198C67.7811 30.1556 67.2993 30.5504 66.6938 30.9042C66.0881 31.258 65.3788 31.435 64.5647 31.435C63.4215 31.435 62.4089 31.1271 61.5274 30.5121C60.6456 29.8968 59.9554 29.0527 59.4565 27.98C58.9574 26.9073 58.708 25.6956 58.708 24.345C58.708 22.9943 58.9574 21.7829 59.4565 20.7102C59.9554 19.6375 60.6458 18.7907 61.5274 18.1701C62.4089 17.5494 63.4215 17.2388 64.5647 17.2388C65.3591 17.2388 66.0492 17.3885 66.6358 17.6881C67.2217 17.9876 67.6966 18.3363 68.0598 18.7335C68.4233 19.131 68.6581 19.4878 68.7646 19.8035V17.6309H72.4271V31.0429H68.8084V31.0432ZM62.3268 24.3453C62.3268 25.0968 62.4768 25.7585 62.7774 26.3301C63.0775 26.9019 63.475 27.3455 63.9691 27.6616C64.4631 27.9776 65.0009 28.1352 65.5821 28.1352C66.1926 28.1352 66.7349 27.9746 67.2097 27.6532C67.6843 27.3321 68.0598 26.8854 68.3359 26.3136C68.6122 25.7418 68.7503 25.0857 68.7503 24.345C68.7503 23.6042 68.6122 22.9482 68.3359 22.3766C68.0598 21.8048 67.6841 21.3558 67.2097 21.029C66.7349 20.7024 66.1926 20.5389 65.5821 20.5389C64.9716 20.5389 64.4631 20.6997 63.9691 21.0209C63.475 21.3423 63.0777 21.7886 62.7774 22.3604C62.4771 22.9323 62.3268 23.5937 62.3268 24.3453Z" fill="#414042"/>
<path d="M82.3524 17.239C83.1663 17.239 83.9606 17.4269 84.7358 17.8028C85.5107 18.1784 86.1476 18.7748 86.6467 19.5917C87.1456 20.4086 87.3953 21.4762 87.3953 22.7936V31.0435H83.6894V23.5125C83.6894 22.4126 83.4591 21.5957 82.9989 21.0622C82.5387 20.5287 81.9357 20.2615 81.1898 20.2615C80.7051 20.2615 80.2427 20.4113 79.802 20.7108C79.3609 21.0104 79.0025 21.4243 78.7265 21.9524C78.4504 22.4809 78.3124 23.0823 78.3124 23.7575V31.0435H74.6211V17.6315H78.3124V19.7714C78.4189 19.4012 78.6612 19.0199 79.039 18.6281C79.4169 18.2359 79.8966 17.9067 80.4778 17.6398C81.0592 17.3732 81.6841 17.2396 82.3524 17.2396V17.239Z" fill="#414042"/>
<path d="M93.0189 24.0511C93.0189 25.2493 93.2318 26.2049 93.6585 26.9181C94.0846 27.6316 94.7723 27.9881 95.7221 27.9881C96.6718 27.9881 97.374 27.6316 97.8003 26.9181C98.2264 26.2049 98.4399 25.2493 98.4399 24.0511V17.6309H102.073V24.5247C102.073 25.908 101.826 27.1197 101.332 28.1597C100.838 29.1997 100.118 30.0058 99.1738 30.5774C98.2291 31.1492 97.0785 31.435 95.7223 31.435C94.3662 31.435 93.23 31.1492 92.2853 30.5774C91.3406 30.0055 90.6211 29.1997 90.1271 28.1597C89.633 27.1197 89.3857 25.908 89.3857 24.5247V17.6309H93.0189V24.0511Z" fill="#414042"/>
<path d="M108.06 31.0432H104.354V8.56441H108.06V31.0432Z" fill="#414042"/>
<path d="M119.861 31.0432V28.707C119.774 28.9466 119.551 29.2845 119.192 29.7198C118.834 30.1556 118.352 30.5504 117.746 30.9042C117.141 31.258 116.431 31.435 115.617 31.435C114.474 31.435 113.462 31.1271 112.58 30.5121C111.698 29.8968 111.008 29.0527 110.509 27.98C110.01 26.9073 109.761 25.6956 109.761 24.345C109.761 22.9943 110.01 21.7829 110.509 20.7102C111.008 19.6375 111.698 18.7907 112.58 18.1701C113.462 17.5494 114.474 17.2388 115.617 17.2388C116.412 17.2388 117.102 17.3885 117.688 17.6881C118.274 17.9876 118.749 18.3363 119.113 18.7335C119.476 19.131 119.711 19.4878 119.817 19.8035V17.6309H123.48V31.0429H119.861V31.0432ZM113.38 24.3453C113.38 25.0968 113.53 25.7585 113.83 26.3301C114.13 26.9019 114.528 27.3455 115.022 27.6616C115.516 27.9776 116.054 28.1352 116.635 28.1352C117.246 28.1352 117.788 27.9746 118.263 27.6532C118.737 27.3321 119.113 26.8854 119.389 26.3136C119.665 25.7418 119.803 25.0857 119.803 24.345C119.803 23.6042 119.665 22.9482 119.389 22.3766C119.113 21.8048 118.737 21.3558 118.263 21.029C117.788 20.7024 117.246 20.5389 116.635 20.5389C116.025 20.5389 115.516 20.6997 115.022 21.0209C114.528 21.3423 114.13 21.7886 113.83 22.3604C113.53 22.9323 113.38 23.5937 113.38 24.3453Z" fill="#414042"/>
<path d="M11.0821 40C16.0135 40 20.4152 36.4818 22.0352 31.2463C22.4514 29.901 21.8185 28.4314 20.6223 27.9635C19.425 27.4935 18.1177 28.207 17.7019 29.5517C16.7226 32.7168 14.0624 34.8427 11.0818 34.8427C8.10098 34.8427 5.44046 32.7168 4.46115 29.5517C4.04544 28.207 2.73756 27.4935 1.54081 27.9635C0.344585 28.4314 -0.288302 29.901 0.127937 31.2463C1.74786 36.4818 6.14956 40 11.0815 40H11.0821Z" fill="#987628"/>
<path d="M19.1265 10.3617C18.3369 10.3617 17.5679 9.9022 17.1423 9.07963C15.8893 6.66048 13.567 5.15734 11.0818 5.15734C8.59661 5.15734 6.27479 6.66048 5.0218 9.07963C4.38519 10.3108 2.97978 10.7284 1.88561 10.0109C0.790387 9.29471 0.419449 7.71609 1.05713 6.48554C3.12821 2.48536 6.96976 0 11.0818 0C15.1938 0 19.0359 2.48506 21.107 6.48524C21.7447 7.71579 21.3737 9.29441 20.2785 10.0106C19.9156 10.2485 19.5182 10.3614 19.1265 10.3614V10.3617Z" fill="#987628"/>
<path d="M21.107 6.48524C19.0359 2.48536 15.1944 0 11.0818 0C6.96923 0 3.12821 2.48536 1.05713 6.48524C0.419449 7.71579 0.790387 9.29441 1.88561 10.0106C2.97978 10.7281 4.38519 10.3105 5.0218 9.07933C5.26803 8.60365 5.55689 8.16511 5.87907 7.76491C8.01862 4.79608 13.9427 -1.56814 21.107 6.48494V6.48524Z" fill="#E5BB57"/>
<path d="M3.0376 15.7108C3.82718 15.7108 4.59624 16.1703 5.0218 16.9928C6.27479 19.412 8.59715 20.9151 11.0823 20.9151C13.5675 20.9151 15.8893 19.412 17.1423 16.9928C17.7789 15.7617 19.1843 15.3441 20.2785 16.0615C21.3737 16.7778 21.7447 18.3564 21.107 19.5869C19.0359 23.5871 15.1944 26.0722 11.0823 26.0722C6.9703 26.0722 3.12821 23.5871 1.05713 19.5869C0.419449 18.3564 0.790387 16.7778 1.88561 16.0615C2.24856 15.8237 2.64588 15.7108 3.0376 15.7108Z" fill="#987628"/>
<path d="M1.05762 19.5872C3.12842 23.5874 6.97025 26.0725 11.0828 26.0725C15.1954 26.0725 19.0364 23.5871 21.1075 19.5872C21.7452 18.3567 21.3742 16.778 20.279 16.0618C19.1848 15.3444 17.7794 15.762 17.1428 16.9931C16.8966 17.4688 16.6077 17.9073 16.2855 18.3075C14.146 21.2764 8.2219 27.6406 1.05762 19.5875V19.5872Z" fill="#E5BB57"/>
<path d="M0.128196 31.2472C1.75052 36.4812 6.15115 39.9991 11.0818 39.9991C16.0157 39.9991 20.4163 36.4812 22.0354 31.2472C22.4506 29.901 21.8182 28.4329 20.6239 27.9626C19.4263 27.4923 18.1168 28.2068 17.7019 29.5529C17.7019 29.5529 17.6923 29.5817 17.6732 29.6356C17.5071 30.1634 17.29 30.6622 17.0344 31.1253C17.0312 31.1289 17.028 31.1325 17.028 31.136C15.2653 34.7151 9.96073 42.2966 0.12793 31.2475L0.128196 31.2472Z" fill="#E5BB57"/>
</svg>
